<svg width="112" height="37" viewBox="0 0 112 37" fill="none" xmlns="http://www.w3.org/2000/svg">
<path d="M7.14 9.4316V21.9387C7.14 22.7862 7.32511 23.4013 7.69533 23.784C8.092 24.1394 8.75311 24.3171 9.67867 24.3171H12.4553V28.2128H8.88533C6.84911 28.2128 5.28889 27.7207 4.20467 26.7365C3.12044 25.7524 2.57833 24.1531 2.57833 21.9387V9.4316H0V5.61796H2.57833V0H7.14V5.61796H12.4553V9.4316H7.14Z" fill="black"/>
<path d="M0 31.1419H17V37L8.806 34.0709L0 37V31.1419Z" fill="black"/>
<path d="M112.004 16.596C112.004 17.34 111.956 18.012 111.86 18.612H96.7041C96.8241 20.196 97.4121 21.468 98.4681 22.428C99.5241 23.388 100.82 23.868 102.356 23.868C104.564 23.868 106.124 22.944 107.036 21.096H111.464C110.864 22.92 109.772 24.42 108.188 25.596C106.628 26.748 104.684 27.324 102.356 27.324C100.46 27.324 98.7561 26.904 97.2441 26.064C95.7561 25.2 94.5801 24 93.7161 22.464C92.8761 20.904 92.4561 19.104 92.4561 17.064C92.4561 15.024 92.8641 13.236 93.6801 11.7C94.5201 10.14 95.6841 8.93996 97.1721 8.09996C98.6841 7.25996 100.412 6.83997 102.356 6.83997C104.228 6.83997 105.896 7.24797 107.36 8.06396C108.824 8.87997 109.964 10.032 110.78 11.52C111.596 12.984 112.004 14.676 112.004 16.596ZM107.72 15.3C107.696 13.788 107.156 12.576 106.1 11.664C105.044 10.752 103.736 10.296 102.176 10.296C100.76 10.296 99.5481 10.752 98.5401 11.664C97.5321 12.552 96.9321 13.764 96.7401 15.3H107.72Z" fill="black"/>
<path d="M86.2183 10.5119V21.4919C86.2183 22.2359 86.3863 22.7759 86.7223 23.1119C87.0823 23.4239 87.6823 23.5799 88.5223 23.5799H91.0423V26.9999H87.8023C85.9543 26.9999 84.5383 26.5679 83.5543 25.7039C82.5703 24.8399 82.0783 23.4359 82.0783 21.4919V10.5119H79.7383V7.16393H82.0783V2.23193H86.2183V7.16393H91.0423V10.5119H86.2183Z" fill="black"/>
<path d="M79.3327 7.16394L67.1647 36.3239H62.9167L66.9487 26.6759L59.1367 7.16394H63.7087L69.2887 22.2839L75.0847 7.16394H79.3327Z" fill="black"/>
<path d="M42.1821 10.116C42.8781 9.15598 43.8261 8.37599 45.0261 7.77598C46.2501 7.15199 47.6061 6.83999 49.0941 6.83999C50.8461 6.83999 52.4301 7.25998 53.8461 8.09998C55.2621 8.93999 56.3781 10.14 57.1941 11.7C58.0101 13.236 58.4181 15 58.4181 16.992C58.4181 18.984 58.0101 20.772 57.1941 22.356C56.3781 23.916 55.2501 25.14 53.8101 26.028C52.3941 26.892 50.8221 27.324 49.0941 27.324C47.5581 27.324 46.1901 27.024 44.9901 26.424C43.8141 25.824 42.8781 25.056 42.1821 24.12V27H38.0781V0.359985H42.1821V10.116ZM54.2421 16.992C54.2421 15.624 53.9541 14.448 53.3781 13.464C52.8261 12.456 52.0821 11.7 51.1461 11.196C50.2341 10.668 49.2501 10.404 48.1941 10.404C47.1621 10.404 46.1781 10.668 45.2421 11.196C44.3301 11.724 43.5861 12.492 43.0101 13.5C42.4581 14.508 42.1821 15.696 42.1821 17.064C42.1821 18.432 42.4581 19.632 43.0101 20.664C43.5861 21.672 44.3301 22.44 45.2421 22.968C46.1781 23.496 47.1621 23.76 48.1941 23.76C49.2501 23.76 50.2341 23.496 51.1461 22.968C52.0821 22.416 52.8261 21.624 53.3781 20.592C53.9541 19.56 54.2421 18.36 54.2421 16.992Z" fill="black"/>
<path d="M33.6635 7.16394V26.9999H29.5595V24.6599C28.9115 25.4759 28.0595 26.1239 27.0035 26.6039C25.9715 27.0599 24.8675 27.2879 23.6915 27.2879C22.1315 27.2879 20.7275 26.9639 19.4795 26.3159C18.2555 25.6679 17.2835 24.7079 16.5635 23.4359C15.8675 22.1639 15.5195 20.6279 15.5195 18.8279V7.16394H19.5875V18.2159C19.5875 19.9919 20.0315 21.3599 20.9195 22.3199C21.8075 23.2559 23.0195 23.7239 24.5555 23.7239C26.0915 23.7239 27.3035 23.2559 28.1915 22.3199C29.1035 21.3599 29.5595 19.9919 29.5595 18.2159V7.16394H33.6635Z" fill="black"/>
</svg>
